<svg id="Capa_1" enable-background="new 0 0 512 512" height="512" viewBox="0 0 512 512" width="512" xmlns="http://www.w3.org/2000/svg" xmlns:xlink="http://www.w3.org/1999/xlink"><linearGradient id="SVGID_1_" gradientUnits="userSpaceOnUse" x1="256.001" x2="256.001" y1="503.501" y2="8.5"><stop offset="0" stop-color="#addcff"/><stop offset=".5028" stop-color="#eaf6ff"/><stop offset="1" stop-color="#eaf6ff"/></linearGradient><linearGradient id="SVGID_00000109743602323171200210000010949697975482740870_" gradientUnits="userSpaceOnUse" x1="256" x2="256" y1="488.5" y2="23.5"><stop offset="0" stop-color="#5558ff"/><stop offset="1" stop-color="#00c0ff"/></linearGradient><g id="Clock_1_"><g><g><path d="m226 38.499h15v45c0 8.291 6.709 15 15 15s15-6.709 15-15v-45h15c8.291 0 15-6.709 15-15s-6.709-15-15-15h-60c-8.291 0-15 6.709-15 15s6.709 15 15 15zm-87.187 377.256c-7.603-3.413-16.45-.044-19.834 7.5l-26.646 59.077c-3.413 7.559-.059 16.436 7.5 19.834 7.547 3.415 16.452.04 19.834-7.5l26.646-59.077c3.413-7.558.058-16.435-7.5-19.834zm254.208 7.5c-3.384-7.559-12.246-10.957-19.834-7.5-7.559 3.398-10.913 12.275-7.5 19.834l26.646 59.077c3.38 7.535 12.28 10.919 19.834 7.5 7.559-3.398 10.913-12.275 7.5-19.834zm-264.228-271.963c5.859-5.859 5.859-15.352 0-21.211l-44.915-44.655c-5.859-5.859-15.352-5.859-21.211 0s-5.859 15.352 0 21.211l44.915 44.656c5.86 5.859 15.352 5.859 21.211-.001zm320.541-65.874c-5.859-5.859-15.352-5.859-21.211 0l-44.916 44.663c-5.859 5.859-5.859 15.352 0 21.211 5.86 5.859 15.352 5.859 21.211 0l44.916-44.663c5.859-5.859 5.859-15.351 0-21.211zm-193.334 28.081c-90.967 0-165 74.019-165 165s74.033 165 165 165 165-74.019 165-165-74.033-165-165-165z" fill="url(#SVGID_1_)"/></g></g><g><g><path d="m256 68.499c-115.796 0-210 94.204-210 210s94.204 210 210 210 210-94.204 210-210-94.204-210-210-210zm0 360c-82.705 0-150-67.295-150-150s67.295-150 150-150 150 67.295 150 150-67.295 150-150 150zm0-240c-8.291 0-15 6.709-15 15v68.789l-48.618 48.618c-5.859 5.859-5.859 15.352 0 21.211 5.86 5.859 15.352 5.859 21.211 0l53.013-53.013c2.812-2.812 4.395-6.621 4.395-10.605v-75c-.001-8.291-6.71-15-15.001-15zm-207.336-37.17c19.849-32.432 47.476-60.059 79.907-79.907 3.926-2.402 6.519-6.475 7.061-11.045s-1.055-9.126-4.321-12.378l-3.267-3.252c-28.301-28.33-77.754-28.33-106.055 0-29.371 29.341-29.256 76.829-.029 106.025l3.281 3.296c2.842 2.856 6.665 4.424 10.635 4.424 5.2 0 10.062-2.71 12.788-7.163zm441.349-106.589c-28.301-28.33-77.783-28.301-106.025-.029l-3.296 3.281c-3.267 3.252-4.863 7.808-4.321 12.378s3.135 8.643 7.061 11.045c32.432 19.849 60.059 47.476 79.907 79.907 2.727 4.456 7.591 7.163 12.788 7.163 3.97 0 7.793-1.567 10.635-4.424l3.252-3.267c29.37-29.341 29.26-76.823-.001-106.054z" fill="url(#SVGID_00000109743602323171200210000010949697975482740870_)"/></g></g></g></svg>